<?xml version="1.0" encoding="utf-8"?>
<!-- Generator: Adobe Illustrator 22.1.0, SVG Export Plug-In . SVG Version: 6.00 Build 0)  -->
<svg version="1.1" id="Layer_1" xmlns="http://www.w3.org/2000/svg" xmlns:xlink="http://www.w3.org/1999/xlink" x="0px" y="0px"
	 width="460px" height="352px" viewBox="0 0 460 352" style="enable-background:new 0 0 460 352;" xml:space="preserve">
<style type="text/css">
	.st0{fill:none;stroke:#464850;stroke-width:2;stroke-linecap:round;stroke-linejoin:round;stroke-miterlimit:10;}
	
		.st1{fill:none;stroke:#464850;stroke-width:2;stroke-linecap:round;stroke-linejoin:round;stroke-miterlimit:10;stroke-dasharray:2,5;}
	.st2{enable-background:new    ;}
	.st3{fill:#464850;}
	.st4{fill:#5767FF;}
	.st5{fill:#FFFFFF;}
</style>
<g>
	<rect x="400" y="108" class="st0" width="12" height="6"/>
	<rect x="400" y="42" class="st0" width="12" height="6"/>
	<rect x="390" y="93" class="st0" width="6" height="12"/>
	<rect x="390" y="72" class="st0" width="6" height="12"/>
	<rect x="390" y="52" class="st0" width="6" height="12"/>
	<path class="st0" d="M422.4,108h-22.2c-2.1,0-3.9-1.8-3.9-3.9V51.9c0-2.2,1.8-3.9,3.9-3.9h32.2"/>
	<polyline class="st0" points="421.3,103 401.3,103 401.3,53 431.3,53 	"/>
	<path class="st0" d="M429.6,97.8"/>
	<polyline class="st0" points="418,58.2 406.5,58.2 406.5,65.2 	"/>
	<line class="st1" x1="426.3" y1="108" x2="451" y2="108"/>
	<line class="st1" x1="430.6" y1="48" x2="455.3" y2="48"/>
	<line class="st1" x1="424.5" y1="103" x2="442.2" y2="103"/>
	<line class="st1" x1="435.4" y1="53" x2="448.1" y2="53"/>
</g>
<g>
	<rect x="65" y="108" class="st0" width="12" height="6"/>
	<rect x="65" y="42" class="st0" width="12" height="6"/>
	<rect x="81" y="93" class="st0" width="6" height="12"/>
	<rect x="81" y="72" class="st0" width="6" height="12"/>
	<rect x="81" y="52" class="st0" width="6" height="12"/>
	<path class="st0" d="M50.2,48h26.2c2.1,0,3.9,1.7,3.9,3.9v52.2c0,2.1-1.8,3.9-3.9,3.9H32.2"/>
	<polyline class="st0" points="45.3,53 75.3,53 75.3,103 38.3,103 	"/>
	<polyline class="st0" points="70,69 70,98 53,98 	"/>
	<line class="st0" x1="46.4" y1="98" x2="43" y2="98"/>
	<line class="st1" x1="45.6" y1="48" x2="21.5" y2="48.1"/>
	<line class="st1" x1="28.2" y1="108" x2="11.5" y2="108.1"/>
	<line class="st1" x1="42.3" y1="53" x2="24.6" y2="53"/>
	<line class="st1" x1="34.4" y1="103" x2="21.8" y2="103"/>
</g>
<g class="st2">
	<path class="st3" d="M222.4,10.7h2.6l3.6,10.1H226l-0.7-2.2h-3.4l-0.7,2.2h-2.5L222.4,10.7z M222.5,16.8h2.3l-0.4-1.2
		c-0.1-0.4-0.3-0.8-0.4-1.3c-0.1-0.4-0.2-0.9-0.3-1.2h0c-0.1,0.4-0.2,0.8-0.4,1.2s-0.3,0.9-0.4,1.3L222.5,16.8z"/>
	<path class="st3" d="M233.4,10.5c0.7,0,1.3,0.1,1.8,0.2c0.5,0.1,1,0.3,1.3,0.5L236,13c-0.4-0.2-0.8-0.4-1.3-0.5
		c-0.4-0.1-0.8-0.2-1.2-0.2c-0.5,0-0.9,0.1-1.1,0.3c-0.3,0.2-0.4,0.4-0.4,0.7c0,0.3,0.1,0.6,0.4,0.7c0.2,0.2,0.6,0.3,1.1,0.5
		l0.9,0.3c0.4,0.1,0.7,0.3,1,0.5c0.3,0.2,0.6,0.4,0.8,0.6c0.2,0.2,0.4,0.5,0.5,0.8s0.2,0.6,0.2,1c0,0.4-0.1,0.8-0.2,1.2
		c-0.2,0.4-0.4,0.7-0.7,1c-0.3,0.3-0.7,0.5-1.2,0.7c-0.5,0.2-1.1,0.2-1.8,0.2c-0.6,0-1.2-0.1-1.8-0.2c-0.6-0.1-1.1-0.3-1.6-0.6
		l0.5-1.8c0.5,0.2,0.9,0.4,1.3,0.5c0.4,0.1,0.9,0.2,1.4,0.2c0.6,0,1-0.1,1.2-0.3c0.3-0.2,0.4-0.4,0.4-0.8c0-0.1,0-0.2-0.1-0.3
		c0-0.1-0.1-0.2-0.2-0.3c-0.1-0.1-0.3-0.2-0.5-0.3s-0.5-0.2-0.8-0.3l-0.8-0.3c-0.4-0.1-0.7-0.3-1-0.5c-0.3-0.2-0.6-0.4-0.8-0.6
		c-0.2-0.2-0.4-0.5-0.5-0.8c-0.1-0.3-0.2-0.7-0.2-1.1c0-0.4,0.1-0.8,0.2-1.2c0.2-0.4,0.4-0.7,0.7-1c0.3-0.3,0.7-0.5,1.2-0.6
		C232.2,10.5,232.7,10.5,233.4,10.5z"/>
	<path class="st3" d="M241.1,10.7v10.1h-2.4V10.7H241.1z"/>
	<path class="st3" d="M248.4,19.1c0.5,0,0.9,0,1.2-0.1c0.3-0.1,0.6-0.2,0.8-0.3l0.5,1.7c-0.2,0.1-0.6,0.3-1,0.4
		c-0.5,0.1-1.1,0.2-1.8,0.2c-0.8,0-1.5-0.1-2.2-0.4c-0.7-0.2-1.2-0.6-1.7-1c-0.5-0.5-0.8-1-1.1-1.6c-0.3-0.6-0.4-1.4-0.4-2.2
		c0-0.8,0.1-1.5,0.4-2.1c0.3-0.6,0.6-1.2,1.1-1.6c0.5-0.5,1-0.8,1.7-1.1c0.7-0.3,1.4-0.4,2.2-0.4c0.7,0,1.3,0.1,1.7,0.2
		c0.4,0.1,0.8,0.3,1,0.4l-0.5,1.8c-0.2-0.1-0.5-0.3-0.9-0.4s-0.7-0.2-1.1-0.2c-0.4,0-0.8,0.1-1.2,0.2c-0.4,0.1-0.7,0.3-1,0.6
		c-0.3,0.3-0.5,0.6-0.7,1c-0.2,0.4-0.2,0.9-0.2,1.5c0,0.6,0.1,1.1,0.2,1.5s0.4,0.8,0.6,1.1c0.3,0.3,0.6,0.5,1,0.6
		C247.6,19,248,19.1,248.4,19.1z"/>
	<path class="st3" d="M257,15c-0.3-0.1-0.6-0.2-0.9-0.3c-0.3-0.1-0.6-0.1-0.9-0.1c-0.3,0-0.5,0-0.7,0.1c-0.2,0.1-0.3,0.2-0.3,0.4
		c0,0.2,0.1,0.3,0.2,0.5c0.2,0.1,0.5,0.3,1,0.4l0.5,0.1c0.6,0.2,1.1,0.5,1.5,0.8s0.5,0.8,0.5,1.4c0,0.4-0.1,0.7-0.2,1
		c-0.2,0.3-0.4,0.6-0.7,0.8c-0.3,0.2-0.6,0.4-1.1,0.5c-0.4,0.1-0.9,0.2-1.4,0.2c-0.5,0-1,0-1.4-0.1c-0.4-0.1-0.8-0.2-1.2-0.4
		l0.5-1.7c0.3,0.2,0.6,0.3,1,0.4c0.3,0.1,0.7,0.2,1,0.2c0.4,0,0.7-0.1,0.9-0.2c0.2-0.1,0.2-0.3,0.2-0.4c0-0.1,0-0.2-0.1-0.2
		s-0.1-0.1-0.2-0.2c-0.1-0.1-0.2-0.1-0.4-0.2c-0.2-0.1-0.4-0.1-0.7-0.2l-0.5-0.1c-0.6-0.2-1.1-0.5-1.4-0.8c-0.3-0.4-0.4-0.8-0.4-1.4
		c0-0.4,0.1-0.7,0.2-1c0.1-0.3,0.3-0.5,0.6-0.8c0.3-0.2,0.6-0.4,1-0.5c0.4-0.1,0.8-0.2,1.3-0.2s0.9,0,1.4,0.1
		c0.4,0.1,0.8,0.2,1.1,0.4L257,15z"/>
</g>
<polyline class="st0" points="71.3,127 71.3,219 208.3,219 208.3,237 "/>
<g>
	<g>
		<path class="st3" d="M223.6,320.9l0.9,4.2c0.1,0.6,0.2,1.1,0.3,1.7c0.1,0.5,0.2,1.1,0.2,1.7h0c0.1-0.6,0.2-1.2,0.3-1.7
			s0.2-1.1,0.3-1.6l1-4.2h2.6l1,4.2c0.1,0.5,0.2,1.1,0.3,1.6c0.1,0.5,0.2,1.1,0.3,1.7h0c0.1-0.6,0.2-1.2,0.3-1.7s0.2-1.1,0.3-1.6
			l0.9-4.2h2.4l-2.4,10.1h-2.7l-1-4.3c-0.1-0.5-0.3-1.1-0.4-1.7c-0.1-0.6-0.2-1.1-0.3-1.7h0c-0.1,0.6-0.2,1.1-0.3,1.7
			s-0.2,1.1-0.4,1.6l-1,4.3h-2.7l-2.5-10.1H223.6z"/>
		<path class="st3" d="M242.3,327.8h-5v0.1c0,0.5,0.2,0.9,0.6,1.2s0.9,0.4,1.6,0.4c0.4,0,0.8,0,1.2-0.1c0.3-0.1,0.6-0.2,0.8-0.3
			l0.4,1.6c-0.3,0.1-0.7,0.3-1.1,0.4c-0.4,0.1-1,0.2-1.6,0.2c-0.6,0-1.1-0.1-1.6-0.2c-0.5-0.2-1-0.4-1.4-0.7
			c-0.4-0.3-0.7-0.7-0.9-1.2c-0.2-0.5-0.3-1.1-0.3-1.8c0-0.6,0.1-1.2,0.3-1.7s0.5-0.9,0.8-1.3c0.3-0.4,0.7-0.6,1.2-0.8
			s1-0.3,1.6-0.3c1.1,0,1.9,0.3,2.5,1c0.6,0.6,0.9,1.6,0.9,2.7V327.8z M239.9,326.2c0-0.2,0-0.4-0.1-0.5s-0.1-0.3-0.2-0.5
			c-0.1-0.1-0.2-0.2-0.4-0.3c-0.1-0.1-0.3-0.1-0.5-0.1c-0.4,0-0.7,0.1-0.9,0.4s-0.4,0.6-0.4,1.1L239.9,326.2z"/>
		<path class="st3" d="M251.5,327.2c0,0.6-0.1,1.2-0.3,1.7c-0.2,0.5-0.4,0.9-0.8,1.3c-0.3,0.3-0.7,0.6-1.2,0.8
			c-0.4,0.2-0.9,0.3-1.4,0.3c-0.5,0-0.9-0.1-1.3-0.2c-0.4-0.2-0.7-0.4-0.9-0.6h-0.1l-0.1,0.7h-1.7v-11.4h2.4v4.3
			c0.2-0.2,0.5-0.4,0.9-0.5c0.3-0.1,0.7-0.2,1.1-0.2c1.1,0,1.9,0.4,2.5,1.1C251.2,324.9,251.5,325.9,251.5,327.2z M249.1,327.3
			c0-0.8-0.2-1.4-0.4-1.7c-0.3-0.4-0.7-0.6-1.3-0.6c-0.3,0-0.5,0.1-0.7,0.2c-0.2,0.1-0.4,0.3-0.5,0.4v3.5c0.1,0.1,0.3,0.3,0.5,0.3
			c0.2,0.1,0.4,0.1,0.6,0.1c0.2,0,0.5,0,0.7-0.1c0.2-0.1,0.4-0.2,0.6-0.4s0.3-0.4,0.4-0.7S249.1,327.6,249.1,327.3z"/>
		<path class="st3" d="M204.6,337.6h2.4V349h-1.6l-0.2-0.8H205c-0.1,0.2-0.4,0.5-0.8,0.7c-0.4,0.2-0.9,0.3-1.4,0.3
			c-0.5,0-1-0.1-1.4-0.3c-0.4-0.2-0.8-0.5-1.1-0.8c-0.3-0.3-0.6-0.8-0.7-1.3s-0.3-1.1-0.3-1.7c0-0.6,0.1-1.2,0.2-1.7
			c0.2-0.5,0.4-0.9,0.7-1.3s0.7-0.6,1.1-0.8c0.4-0.2,1-0.3,1.5-0.3c0.4,0,0.7,0.1,1,0.2c0.3,0.1,0.6,0.2,0.7,0.4V337.6z
			 M204.6,343.4c-0.1-0.1-0.2-0.3-0.4-0.4c-0.2-0.1-0.4-0.2-0.7-0.2s-0.5,0-0.7,0.1c-0.2,0.1-0.4,0.2-0.6,0.4
			c-0.2,0.2-0.3,0.4-0.4,0.7c-0.1,0.3-0.1,0.6-0.1,1c0,0.8,0.2,1.4,0.5,1.8c0.3,0.4,0.7,0.6,1.2,0.6c0.3,0,0.6-0.1,0.8-0.2
			s0.4-0.3,0.4-0.5V343.4z"/>
		<path class="st3" d="M209,342c0.4-0.3,0.9-0.5,1.5-0.6c0.5-0.2,1.1-0.2,1.7-0.2c0.9,0,1.7,0.2,2.3,0.7c0.6,0.5,0.9,1.2,0.9,2.2v5
			h-1.8l-0.2-0.8h-0.1c-0.2,0.3-0.5,0.5-0.9,0.7s-0.8,0.3-1.3,0.3c-0.4,0-0.8-0.1-1.1-0.2c-0.3-0.1-0.6-0.3-0.8-0.5
			c-0.2-0.2-0.4-0.5-0.5-0.8c-0.1-0.3-0.2-0.6-0.2-0.9c0-0.4,0.1-0.8,0.3-1.2c0.2-0.3,0.5-0.6,0.8-0.8c0.3-0.2,0.7-0.4,1.2-0.4
			c0.5-0.1,0.9-0.1,1.4-0.1h0.8v-0.4c0-0.3-0.1-0.5-0.3-0.7c-0.2-0.2-0.5-0.2-0.9-0.2c-0.3,0-0.6,0-0.9,0.1c-0.3,0.1-0.7,0.3-1,0.5
			L209,342z M212.9,345.7l-0.5,0c-0.3,0-0.5,0-0.8,0.1c-0.2,0.1-0.4,0.1-0.5,0.2s-0.2,0.2-0.3,0.3c-0.1,0.1-0.1,0.2-0.1,0.3
			c0,0.3,0.1,0.6,0.3,0.7c0.2,0.1,0.4,0.2,0.7,0.2s0.5-0.1,0.7-0.2s0.4-0.3,0.4-0.5V345.7z"/>
		<path class="st3" d="M221.9,343.3c-0.3-0.1-0.6-0.2-0.9-0.3s-0.6-0.1-0.9-0.1c-0.3,0-0.5,0-0.7,0.1c-0.2,0.1-0.3,0.2-0.3,0.4
			c0,0.2,0.1,0.3,0.2,0.5c0.2,0.1,0.5,0.3,1,0.4l0.5,0.1c0.6,0.2,1.1,0.5,1.5,0.8c0.3,0.4,0.5,0.8,0.5,1.4c0,0.4-0.1,0.7-0.2,1
			c-0.2,0.3-0.4,0.6-0.7,0.8c-0.3,0.2-0.6,0.4-1.1,0.5c-0.4,0.1-0.9,0.2-1.4,0.2c-0.5,0-1,0-1.4-0.1c-0.4-0.1-0.8-0.2-1.2-0.4
			l0.5-1.7c0.3,0.2,0.6,0.3,1,0.4s0.7,0.2,1,0.2c0.4,0,0.7-0.1,0.9-0.2c0.2-0.1,0.2-0.3,0.2-0.4c0-0.1,0-0.2-0.1-0.2
			c0-0.1-0.1-0.1-0.2-0.2c-0.1-0.1-0.2-0.1-0.4-0.2c-0.2-0.1-0.4-0.1-0.7-0.2l-0.5-0.1c-0.6-0.2-1.1-0.5-1.4-0.8s-0.4-0.8-0.4-1.4
			c0-0.4,0.1-0.7,0.2-1c0.1-0.3,0.3-0.5,0.6-0.8c0.3-0.2,0.6-0.4,1-0.5c0.4-0.1,0.8-0.2,1.3-0.2s0.9,0,1.4,0.1
			c0.4,0.1,0.8,0.2,1.1,0.4L221.9,343.3z"/>
		<path class="st3" d="M226.7,349h-2.4v-11.4h2.4v4.4c0.3-0.2,0.6-0.4,1-0.6s0.8-0.2,1.3-0.2c0.5,0,0.9,0.1,1.2,0.2
			c0.3,0.1,0.6,0.3,0.8,0.6c0.2,0.3,0.4,0.5,0.5,0.9c0.1,0.3,0.2,0.7,0.2,1.1v5h-2.4v-4.7c0-0.5-0.1-0.9-0.3-1.1
			c-0.2-0.2-0.5-0.3-0.9-0.3c-0.3,0-0.5,0.1-0.8,0.2s-0.5,0.3-0.7,0.5V349z"/>
		<path class="st3" d="M241.4,345.2c0,0.6-0.1,1.2-0.3,1.7c-0.2,0.5-0.4,0.9-0.8,1.3c-0.3,0.3-0.7,0.6-1.2,0.8
			c-0.4,0.2-0.9,0.3-1.4,0.3c-0.5,0-0.9-0.1-1.3-0.2c-0.4-0.2-0.7-0.4-0.9-0.6h-0.1l-0.1,0.7h-1.7v-11.4h2.4v4.3
			c0.2-0.2,0.5-0.4,0.9-0.5c0.3-0.1,0.7-0.2,1.1-0.2c1.1,0,1.9,0.4,2.5,1.1C241.1,342.9,241.4,343.9,241.4,345.2z M238.9,345.3
			c0-0.8-0.2-1.4-0.4-1.7c-0.3-0.4-0.7-0.6-1.3-0.6c-0.3,0-0.5,0.1-0.7,0.2c-0.2,0.1-0.4,0.3-0.5,0.4v3.5c0.1,0.1,0.3,0.3,0.5,0.3
			c0.2,0.1,0.4,0.1,0.6,0.1c0.2,0,0.5,0,0.7-0.1c0.2-0.1,0.4-0.2,0.6-0.4s0.3-0.4,0.4-0.7S238.9,345.6,238.9,345.3z"/>
		<path class="st3" d="M250.4,345.1c0,0.6-0.1,1.2-0.3,1.7c-0.2,0.5-0.5,0.9-0.9,1.3c-0.4,0.4-0.8,0.6-1.3,0.8
			c-0.5,0.2-1,0.3-1.6,0.3s-1.1-0.1-1.6-0.3s-0.9-0.4-1.3-0.8c-0.4-0.3-0.6-0.7-0.8-1.2c-0.2-0.5-0.3-1-0.3-1.7
			c0-0.7,0.1-1.2,0.3-1.7c0.2-0.5,0.5-0.9,0.9-1.3c0.4-0.4,0.8-0.6,1.3-0.8c0.5-0.2,1-0.3,1.6-0.3s1.1,0.1,1.6,0.3
			c0.5,0.2,0.9,0.4,1.3,0.8c0.4,0.3,0.6,0.7,0.8,1.2C250.3,343.9,250.4,344.5,250.4,345.1z M248,345.2c0-0.4,0-0.8-0.1-1.1
			c-0.1-0.3-0.2-0.5-0.4-0.7s-0.3-0.3-0.5-0.4c-0.2-0.1-0.4-0.1-0.6-0.1c-0.2,0-0.4,0-0.6,0.1c-0.2,0.1-0.4,0.2-0.5,0.4
			c-0.1,0.2-0.3,0.4-0.3,0.7s-0.1,0.7-0.1,1.1c0,0.8,0.2,1.3,0.5,1.7c0.3,0.4,0.7,0.5,1.1,0.5c0.2,0,0.4,0,0.6-0.1s0.4-0.2,0.5-0.4
			c0.1-0.2,0.3-0.4,0.3-0.7C248,346,248,345.6,248,345.2z"/>
		<path class="st3" d="M252,342c0.4-0.3,0.9-0.5,1.5-0.6c0.5-0.2,1.1-0.2,1.7-0.2c0.9,0,1.7,0.2,2.3,0.7c0.6,0.5,0.9,1.2,0.9,2.2v5
			h-1.8l-0.2-0.8h-0.1c-0.2,0.3-0.5,0.5-0.9,0.7s-0.8,0.3-1.3,0.3c-0.4,0-0.8-0.1-1.1-0.2c-0.3-0.1-0.6-0.3-0.8-0.5
			c-0.2-0.2-0.4-0.5-0.5-0.8c-0.1-0.3-0.2-0.6-0.2-0.9c0-0.4,0.1-0.8,0.3-1.2c0.2-0.3,0.5-0.6,0.8-0.8c0.3-0.2,0.7-0.4,1.2-0.4
			c0.5-0.1,0.9-0.1,1.4-0.1h0.8v-0.4c0-0.3-0.1-0.5-0.3-0.7c-0.2-0.2-0.5-0.2-0.9-0.2c-0.3,0-0.6,0-0.9,0.1c-0.3,0.1-0.7,0.3-1,0.5
			L252,342z M256,345.7l-0.5,0c-0.3,0-0.5,0-0.8,0.1c-0.2,0.1-0.4,0.1-0.5,0.2s-0.2,0.2-0.3,0.3c-0.1,0.1-0.1,0.2-0.1,0.3
			c0,0.3,0.1,0.6,0.3,0.7c0.2,0.1,0.4,0.2,0.7,0.2s0.5-0.1,0.7-0.2s0.4-0.3,0.4-0.5V345.7z"/>
		<path class="st3" d="M260.1,349v-7.7h1.9l0.2,1.3c0.1-0.2,0.2-0.4,0.4-0.6c0.1-0.2,0.3-0.3,0.5-0.5s0.4-0.3,0.7-0.3
			c0.3-0.1,0.5-0.1,0.8-0.1c0.2,0,0.5,0,0.6,0.1c0.2,0.1,0.4,0.1,0.5,0.2l-0.4,1.8c-0.1-0.1-0.3-0.1-0.4-0.2
			c-0.2-0.1-0.4-0.1-0.7-0.1c-0.5,0-0.9,0.2-1.2,0.5s-0.5,0.9-0.5,1.7v3.8H260.1z"/>
		<path class="st3" d="M270.8,337.6h2.4V349h-1.6l-0.2-0.8h-0.1c-0.1,0.2-0.4,0.5-0.8,0.7c-0.4,0.2-0.9,0.3-1.4,0.3
			c-0.5,0-1-0.1-1.4-0.3c-0.4-0.2-0.8-0.5-1.1-0.8c-0.3-0.3-0.6-0.8-0.7-1.3s-0.3-1.1-0.3-1.7c0-0.6,0.1-1.2,0.2-1.7
			c0.2-0.5,0.4-0.9,0.7-1.3s0.7-0.6,1.1-0.8c0.4-0.2,1-0.3,1.5-0.3c0.4,0,0.7,0.1,1,0.2c0.3,0.1,0.6,0.2,0.7,0.4V337.6z
			 M270.8,343.4c-0.1-0.1-0.2-0.3-0.4-0.4c-0.2-0.1-0.4-0.2-0.7-0.2s-0.5,0-0.7,0.1c-0.2,0.1-0.4,0.2-0.6,0.4
			c-0.2,0.2-0.3,0.4-0.4,0.7c-0.1,0.3-0.1,0.6-0.1,1c0,0.8,0.2,1.4,0.5,1.8c0.3,0.4,0.7,0.6,1.2,0.6c0.3,0,0.6-0.1,0.8-0.2
			s0.4-0.3,0.4-0.5V343.4z"/>
	</g>
</g>
<polyline class="st0" points="75.3,129.1 71.3,125.1 67.3,129.1 "/>
<polyline class="st0" points="204.3,235.1 208.3,239.1 212.3,235.1 "/>
<g>
	<path class="st4" d="M260.3,310h-48c-3.3,0-6-2.7-6-6v-48c0-3.3,2.7-6,6-6h48c3.3,0,6,2.7,6,6v48C266.3,307.3,263.6,310,260.3,310z
		"/>
	<path class="st5" d="M243.8,267.5c-2.9,0-5.6,1.2-7.5,3.2c-1.9-1.9-4.6-3.2-7.5-3.2c-5.8,0-10.5,4.7-10.5,10.5v12.5
		c0,1.7,1.3,3,3,3s3-1.3,3-3V278c0-2.5,2-4.5,4.5-4.5s4.5,2,4.5,4.5v12.5c0,1.7,1.3,3,3,3s3-1.3,3-3V278c0-2.5,2-4.5,4.5-4.5
		s4.5,2,4.5,4.5v12.5c0,1.7,1.3,3,3,3s3-1.3,3-3V278C254.3,272.2,249.6,267.5,243.8,267.5z"/>
</g>
<polyline class="st0" points="405.3,127 405.3,219 268.3,219 268.3,237 "/>
<polyline class="st0" points="409.3,129.1 405.3,125.1 401.3,129.1 "/>
<polyline class="st0" points="264.3,235.1 268.3,239.1 272.3,235.1 "/>
<polyline class="st0" points="144.3,127 144.3,182 223.3,182 223.3,237 "/>
<polyline class="st0" points="148.3,129.1 144.3,125.1 140.3,129.1 "/>
<polyline class="st0" points="219.3,235.1 223.3,239.1 227.3,235.1 "/>
<polyline class="st0" points="332.3,127 332.3,182 253.3,182 253.3,237 "/>
<polyline class="st0" points="336.3,129.1 332.3,125.1 328.3,129.1 "/>
<polyline class="st0" points="249.3,235.1 253.3,239.1 257.3,235.1 "/>
<line class="st0" x1="238.3" y1="127" x2="238.3" y2="237"/>
<polyline class="st0" points="242.3,129.1 238.3,125.1 234.3,129.1 "/>
<polyline class="st0" points="234.3,235.1 238.3,239.1 242.3,235.1 "/>
<g>
	<rect x="159" y="108" class="st0" width="12" height="6"/>
	<rect x="138" y="108" class="st0" width="12" height="6"/>
	<rect x="118" y="108" class="st0" width="12" height="6"/>
	<rect x="159" y="42" class="st0" width="12" height="6"/>
	<rect x="138" y="42" class="st0" width="12" height="6"/>
	<rect x="118" y="42" class="st0" width="12" height="6"/>
	<rect x="108" y="93" class="st0" width="6" height="12"/>
	<rect x="108" y="72" class="st0" width="6" height="12"/>
	<rect x="108" y="52" class="st0" width="6" height="12"/>
	<rect x="175" y="92" class="st0" width="6" height="12"/>
	<rect x="175" y="71" class="st0" width="6" height="12"/>
	<rect x="175" y="52" class="st0" width="6" height="12"/>
	<path class="st0" d="M118.2,48h52.2c2.1,0,3.9,1.7,3.9,3.9v52.2c0,2.1-1.8,3.9-3.9,3.9h-52.2c-2.1,0-3.9-1.8-3.9-3.9V51.9
		C114.3,49.7,116.1,48,118.2,48z"/>
	<rect x="119" y="53" class="st0" width="51" height="50"/>
	<polyline class="st0" points="165,69 165,98 148,98 	"/>
	<line class="st0" x1="143" y1="98" x2="140" y2="98"/>
	<polyline class="st0" points="135,58 124,58 124,65 	"/>
</g>
<g>
	<rect x="253" y="108" class="st0" width="12" height="6"/>
	<rect x="232" y="108" class="st0" width="12" height="6"/>
	<rect x="212" y="108" class="st0" width="12" height="6"/>
	<rect x="253" y="42" class="st0" width="12" height="6"/>
	<rect x="232" y="42" class="st0" width="12" height="6"/>
	<rect x="212" y="42" class="st0" width="12" height="6"/>
	<rect x="202" y="93" class="st0" width="6" height="12"/>
	<rect x="202" y="72" class="st0" width="6" height="12"/>
	<rect x="202" y="52" class="st0" width="6" height="12"/>
	<rect x="269" y="92" class="st0" width="6" height="12"/>
	<rect x="269" y="71" class="st0" width="6" height="12"/>
	<rect x="269" y="52" class="st0" width="6" height="12"/>
	<path class="st0" d="M212.2,48h52.2c2.1,0,3.9,1.7,3.9,3.9v52.2c0,2.1-1.8,3.9-3.9,3.9h-52.2c-2.1,0-3.9-1.8-3.9-3.9V51.9
		C208.3,49.7,210.1,48,212.2,48z"/>
	<rect x="213" y="53" class="st0" width="51" height="50"/>
	<polyline class="st0" points="259,69 259,98 242,98 	"/>
	<line class="st0" x1="237" y1="98" x2="234" y2="98"/>
	<polyline class="st0" points="229,58 218,58 218,65 	"/>
</g>
<g>
	<rect x="347" y="108" class="st0" width="12" height="6"/>
	<rect x="326" y="108" class="st0" width="12" height="6"/>
	<rect x="306" y="108" class="st0" width="12" height="6"/>
	<rect x="347" y="42" class="st0" width="12" height="6"/>
	<rect x="326" y="42" class="st0" width="12" height="6"/>
	<rect x="306" y="42" class="st0" width="12" height="6"/>
	<rect x="296" y="93" class="st0" width="6" height="12"/>
	<rect x="296" y="72" class="st0" width="6" height="12"/>
	<rect x="296" y="52" class="st0" width="6" height="12"/>
	<rect x="363" y="92" class="st0" width="6" height="12"/>
	<rect x="363" y="71" class="st0" width="6" height="12"/>
	<rect x="363" y="52" class="st0" width="6" height="12"/>
	<path class="st0" d="M306.2,48h52.2c2.1,0,3.9,1.7,3.9,3.9v52.2c0,2.1-1.8,3.9-3.9,3.9h-52.2c-2.1,0-3.9-1.8-3.9-3.9V51.9
		C302.3,49.7,304.1,48,306.2,48z"/>
	<rect x="307" y="53" class="st0" width="51" height="50"/>
	<polyline class="st0" points="353,69 353,98 336,98 	"/>
	<line class="st0" x1="331" y1="98" x2="328" y2="98"/>
	<polyline class="st0" points="323,58 312,58 312,65 	"/>
</g>
</svg>
